<?xml version="1.0" standalone="no"?><!DOCTYPE svg PUBLIC "-//W3C//DTD SVG 1.1//EN" "http://www.w3.org/Graphics/SVG/1.1/DTD/svg11.dtd"><svg t="1650437696429" class="icon" viewBox="0 0 1024 1024" version="1.1" xmlns="http://www.w3.org/2000/svg" p-id="6918" xmlns:xlink="http://www.w3.org/1999/xlink" width="200" height="200"><defs><style type="text/css">@font-face { font-family: feedback-iconfont; src: url("//at.alicdn.com/t/font_1031158_u69w8yhxdu.woff2?t=1630033759944") format("woff2"), url("//at.alicdn.com/t/font_1031158_u69w8yhxdu.woff?t=1630033759944") format("woff"), url("//at.alicdn.com/t/font_1031158_u69w8yhxdu.ttf?t=1630033759944") format("truetype"); }
</style></defs><path d="M46.155345 920.711821v-815.32794c0-34.329598 27.144333-62.172498 60.475977-62.172498H766.478121c33.331644 0 60.475977 27.942696 60.475977 62.172498v283.61836h39.918137V105.383881c0-56.883345-45.007699-103.288179-100.394114-103.288179H106.631322C51.244908 2.095702 6.237209 48.500536 6.237209 105.383881v815.32794c0 56.98314 45.007699 103.288179 100.394113 103.288179h539.294026V982.984115H106.631322c-33.331644 0-60.475977-27.942696-60.475977-62.272294z" fill="#0b6d2b" p-id="6919"></path><path d="M130.88159 196.097846h445.685996v39.918137H130.88159zM130.88159 349.982263h564.043271v39.918137H130.88159zM130.88159 504.265861h232.922328v39.918137H130.88159zM941.419355 495.483871c-50.496443-50.496443-117.758503-78.339343-189.211968-78.339343s-138.715525 27.8429-189.211967 78.339343c-50.496443 50.496443-78.339343 117.758503-78.339344 189.211968s27.8429 138.715525 78.339344 189.211967 117.758503 78.339343 189.211967 78.339343 138.715525-27.8429 189.211968-78.339343 78.339343-117.758503 78.339343-189.211967-27.8429-138.615729-78.339343-189.211968zM752.207387 912.428808c-125.54254 0-227.732969-102.19043-227.732969-227.732969S626.664847 457.062664 752.207387 457.062664s227.732969 102.19043 227.73297 227.73297-102.19043 227.633174-227.73297 227.633174z" fill="#0b6d2b" p-id="6920"></path><path d="M934.533476 580.709093l-5.887925-13.07319-61.773316 60.575772c-0.898158 0.898158-2.395088 0.898158-3.293247 0l-20.957021-21.356203c-0.598772-0.598772-0.698567-1.297339-0.698568-1.696521 0-0.399181 0.099795-1.097749 0.698568-1.596725l62.97086-61.773317L895.214112 534.903031c-14.270734-9.181171-30.736965-14.869506-47.602378-16.366436-57.881298-5.089562-109.076308 37.822434-114.265666 95.703732-1.696521 19.260501 1.896111 38.321411 10.27892 55.48621L618.68122 794.171328c-9.580353 9.580353-8.083423 26.645356 3.293246 38.121821l11.177079 11.177078c6.386902 6.386902 14.57012 9.680148 22.154566 9.680148 5.98772 0 11.676055-2.095702 15.967254-6.287106l126.540493-126.141312c9.879739 4.091609 20.35825 6.686288 31.235942 7.684241 3.093656 0.299386 6.287107 0.399181 9.380762 0.399182 53.889484 0 99.994932-41.315271 104.884904-96.102914 1.49693-17.663775-1.49693-35.626937-8.78199-51.993373z m-11.177078 50.396647c-4.191404 46.903811-45.706266 81.732385-92.610077 77.540981-10.777897-0.997953-21.056817-3.892018-30.63717-8.682195l-2.494883 4.889972-5.987721-5.987721-134.424325 134.025144c-1.097749 1.097749-5.887925 0.698567-9.879739-3.393042L636.145405 818.321801c-4.091609-4.091609-4.49079-8.78199-3.393042-9.879739l134.424325-134.025144-7.384855-7.384855 3.692428-2.095702c-8.283013-14.869506-11.875646-31.834714-10.27892-48.799922 4.191404-46.903811 45.706266-81.732385 92.610077-77.54098 9.580353 0.898158 18.761524 3.193451 27.443719 7.185264l-44.508723 43.610564c-4.191404 4.191404-6.586493 9.779943-6.686288 15.667869-0.099795 5.98772 2.195498 11.57626 6.386902 15.767664l20.957022 21.356203c8.582399 8.78199 22.753338 8.881785 31.535328 0.299386l40.217522-39.518955c2.295293 9.181171 3.093656 18.661729 2.195498 28.142286z" fill="#0b6d2b" p-id="6921"></path><path d="M656.304064 796.06744c-8.482604-0.798363-16.06705 5.588539-16.865413 14.071143s5.588539 16.06705 14.071143 16.865413c0.498977 0 0.898158 0.099795 1.397135 0.099795 7.983627 0 14.769711-6.087516 15.468278-14.170938 0.698567-8.582399-5.588539-16.166845-14.071143-16.865413z m4.091609 15.967254c-0.299386 2.99386-2.99386 5.289153-5.987721 4.989768-2.99386-0.299386-5.289153-2.99386-4.989767-5.987721 0.299386-2.894065 2.694474-5.089562 5.488744-5.089562h0.498977c2.99386 0.299386 5.289153 2.99386 4.989767 6.087515zM658.200175 715.931781l14.470325-13.771758-34.529188-36.325504c-5.189358-5.488744-13.572166-6.087516-19.460092-1.297339l-26.445765 21.156612-32.732872-34.030211 71.054283-68.758991c3.892018-3.792223 10.179125-9.779943 14.170938-13.472371 0.997953-0.698567 12.674008-9.280967 52.392555-19.260501 1.49693-0.299386 10.179125-1.596725 21.954975-1.995907-4.191404 2.494884-8.083423 4.889972-10.777897 6.586493-0.598772 0.399181-1.097749 0.798363-1.596726 1.197544-3.093656 2.594679-27.044538 29.739012-41.015885 45.606471-3.492837 3.892018-9.081376 9.979534-12.374622 13.172985l-4.790177 4.790177 8.5824 19.460091c0.698567 1.49693 1.696521 2.99386 2.794269 4.191405l32.832668 34.329597 14.470324-13.771757-32.1341-33.63103-2.794269-6.287107c2.894065-3.093656 6.087516-6.586493 8.482604-9.181171 16.566027-18.761524 35.327551-39.918137 38.820387-43.510769 6.087516-3.792223 17.56398-10.578306 26.246175-15.767664 5.488744-3.193451 8.183218-9.480557 6.786084-15.667869-1.397135-6.187311-6.586493-10.678102-12.8736-11.177078-23.551701-1.995907-43.90995 1.397135-46.105447 1.796316-0.399181 0.099795-0.698567 0.099795-1.097749 0.199591-46.404834 11.676055-59.078842 22.05477-61.174544 23.950882-3.991814 3.792223-10.578306 9.979534-14.57012 13.871552l-75.046097 72.551214c-5.688334 5.488744-5.887925 14.669915-0.399182 20.358249l40.017932 41.614658c5.189358 5.388948 13.572166 5.98772 19.460092 1.297339l26.34597-21.156612 31.036351 32.932463z m-13.27278-146.699153l-0.099795 0.099796 0.099795-0.099796zM814.978657 848.260403c0.498977 0 0.898158 0.099795 1.397135 0.099796 3.592632 0 7.085469-1.297339 9.979534-3.592632 3.193451-2.694474 5.089562-6.386902 5.488744-10.478511 0.399181-4.091609-0.898158-8.183218-3.592633-11.276874s-6.386902-5.089562-10.47851-5.488744c-4.091609-0.399181-8.183218 0.898158-11.276874 3.592633-3.193451 2.694474-5.089562 6.386902-5.488744 10.47851-0.399181 4.091609 0.898158 8.183218 3.592633 11.276874s6.287107 4.989767 10.378715 5.388948z m-2.195497-19.659682c0.997953-0.898158 2.295293-1.297339 3.592632-1.297339h0.498977c1.49693 0.099795 2.79427 0.798363 3.792223 1.995907 0.997953 1.097749 1.397135 2.594679 1.297339 3.991813s-0.798363 2.79427-1.995907 3.792223c-1.097749 0.997953-2.594679 1.397135-3.991814 1.29734-1.49693-0.099795-2.79427-0.798363-3.792223-1.995907-0.997953-1.097749-1.397135-2.594679-1.297339-3.991814 0.099795-1.49693 0.798363-2.894065 1.896112-3.792223z" fill="#0b6d2b" p-id="6922"></path><path d="M787.934119 748.465062L773.463795 762.137024l66.164311 69.756943c-0.898158 1.796316-2.79427 4.49079-5.887925 7.384856l-11.476464 10.977487c-3.093656 2.894065-5.887925 4.690381-7.784037 5.488744l-66.164311-69.756944-14.470325 13.771757 68.659195 72.451418c1.397135 1.49693 4.790176 4.191404 10.378716 4.191405 2.395088 0 5.189358-0.498977 8.482604-1.796316 4.790176-1.896111 9.979534-5.388948 14.669915-9.779944l11.476464-10.877692c12.773804-12.075236 16.466231-25.348017 9.181172-33.032258L787.934119 748.465062z" fill="#0b6d2b" p-id="6923"></path></svg>