<?xml version="1.0" standalone="no"?><!DOCTYPE svg PUBLIC "-//W3C//DTD SVG 1.1//EN" "http://www.w3.org/Graphics/SVG/1.1/DTD/svg11.dtd"><svg t="1650438965595" class="icon" viewBox="0 0 1024 1024" version="1.1" xmlns="http://www.w3.org/2000/svg" p-id="21366" xmlns:xlink="http://www.w3.org/1999/xlink" width="200" height="200"><defs><style type="text/css">@font-face { font-family: feedback-iconfont; src: url("//at.alicdn.com/t/font_1031158_u69w8yhxdu.woff2?t=1630033759944") format("woff2"), url("//at.alicdn.com/t/font_1031158_u69w8yhxdu.woff?t=1630033759944") format("woff"), url("//at.alicdn.com/t/font_1031158_u69w8yhxdu.ttf?t=1630033759944") format("truetype"); }
</style></defs><path d="M512 0C228.693333 0 0 228.693333 0 512s228.693333 512 512 512 512-228.693333 512-512S795.306667 0 512 0z m249.173333 382.293333l-286.72 307.2c-6.826667 6.826667-17.066667 10.24-23.893333 10.24-10.24 0-17.066667-3.413333-23.893333-10.24L262.826667 512c-13.653333-13.653333-10.24-34.133333 3.413333-47.786667s34.133333-10.24 47.786667 3.413334l136.533333 150.186666 262.826667-279.893333c13.653333-13.653333 34.133333-13.653333 47.786666 0 13.653333 6.826667 13.653333 30.72 0 44.373333z" p-id="21367" fill="#1afa29"></path></svg>