<?xml version="1.0" standalone="no"?><!DOCTYPE svg PUBLIC "-//W3C//DTD SVG 1.1//EN" "http://www.w3.org/Graphics/SVG/1.1/DTD/svg11.dtd"><svg t="1650438256056" class="icon" viewBox="0 0 1024 1024" version="1.1" xmlns="http://www.w3.org/2000/svg" p-id="17323" xmlns:xlink="http://www.w3.org/1999/xlink" width="200" height="200"><defs><style type="text/css">@font-face { font-family: feedback-iconfont; src: url("//at.alicdn.com/t/font_1031158_u69w8yhxdu.woff2?t=1630033759944") format("woff2"), url("//at.alicdn.com/t/font_1031158_u69w8yhxdu.woff?t=1630033759944") format("woff"), url("//at.alicdn.com/t/font_1031158_u69w8yhxdu.ttf?t=1630033759944") format("truetype"); }
</style></defs><path d="M142.912 64c14.144 0 25.6 11.52 25.6 25.6v765.824H934.4c14.08 0 25.6 11.52 25.6 25.6v53.376a25.6 25.6 0 0 1-25.6 25.6H89.6a25.6 25.6 0 0 1-25.6-25.6V89.6c0-14.08 11.52-25.6 25.6-25.6h53.312zM832 192l-460.8 576H256l460.8-576H832z m-115.2 288A115.2 115.2 0 0 1 832 595.2v57.6a115.2 115.2 0 0 1-230.4 0v-57.6a115.2 115.2 0 0 1 115.2-115.2z m0 89.6a25.6 25.6 0 0 0-25.088 20.48l-0.512 5.12v57.6a25.6 25.6 0 0 0 50.688 5.12l0.512-5.12v-57.6a25.6 25.6 0 0 0-25.6-25.6zM371.2 192a115.2 115.2 0 0 1 115.2 115.2v57.6a115.2 115.2 0 1 1-230.4 0v-57.6A115.2 115.2 0 0 1 371.2 192z m0 89.6a25.6 25.6 0 0 0-25.088 20.48L345.6 307.2v57.6a25.6 25.6 0 0 0 50.688 5.12L396.8 364.8v-57.6a25.6 25.6 0 0 0-25.6-25.6z" fill="#8a8a8a" p-id="17324"></path></svg>