<?xml version="1.0" standalone="no"?><!DOCTYPE svg PUBLIC "-//W3C//DTD SVG 1.1//EN" "http://www.w3.org/Graphics/SVG/1.1/DTD/svg11.dtd"><svg t="1650437995435" class="icon" viewBox="0 0 1024 1024" version="1.1" xmlns="http://www.w3.org/2000/svg" p-id="12220" xmlns:xlink="http://www.w3.org/1999/xlink" width="200" height="200"><defs><style type="text/css">@font-face { font-family: feedback-iconfont; src: url("//at.alicdn.com/t/font_1031158_u69w8yhxdu.woff2?t=1630033759944") format("woff2"), url("//at.alicdn.com/t/font_1031158_u69w8yhxdu.woff?t=1630033759944") format("woff"), url("//at.alicdn.com/t/font_1031158_u69w8yhxdu.ttf?t=1630033759944") format("truetype"); }
</style></defs><path d="M822.08 962.688c-57.6 0-107.072-31.68-128.896-83.072l-2.048-4.672H272.32a204.16 204.16 0 0 1-145.408-60.16 206.592 206.592 0 0 1-60.16-146.24 204.8 204.8 0 0 1 60.16-146.112 205.056 205.056 0 0 1 146.112-60.352h484.544a99.968 99.968 0 0 0 99.904-100.928v-0.32a99.52 99.52 0 0 0-99.968-100.672h-419.2l-2.048 4.672c-21.76 51.2-71.168 83.072-128.896 83.072a139.712 139.712 0 0 1-99.968-40.448 139.648 139.648 0 0 1-40.512-99.968c0-38.592 14.4-74.048 40.512-100.096a140.032 140.032 0 0 1 99.968-40.512c57.6 0 106.88 31.872 128.896 83.136l2.048 4.672h418.944c54.912 0 106.432 21.376 145.28 60.16 38.528 38.528 60.416 91.776 60.16 146.112a206.272 206.272 0 0 1-205.76 206.72h-485.12a99.968 99.968 0 0 0-99.904 101.056v0.256a99.52 99.52 0 0 0 99.968 100.672H691.2l2.048-4.672c21.888-51.2 71.296-83.136 129.024-83.136 38.4 0 74.048 14.4 99.968 40.512 26.112 26.112 40.512 61.632 40.512 99.968 0 38.592-14.464 74.048-40.512 100.032-26.688 26.176-62.72 40.704-100.16 40.32z" fill="#00796A" opacity=".8" p-id="12221"></path></svg>