<?xml version="1.0" standalone="no"?><!DOCTYPE svg PUBLIC "-//W3C//DTD SVG 1.1//EN" "http://www.w3.org/Graphics/SVG/1.1/DTD/svg11.dtd"><svg t="1650732521499" class="icon" viewBox="0 0 1024 1024" version="1.1" xmlns="http://www.w3.org/2000/svg" p-id="7985" xmlns:xlink="http://www.w3.org/1999/xlink" width="200" height="200"><defs><style type="text/css">@font-face { font-family: feedback-iconfont; src: url("//at.alicdn.com/t/font_1031158_u69w8yhxdu.woff2?t=1630033759944") format("woff2"), url("//at.alicdn.com/t/font_1031158_u69w8yhxdu.woff?t=1630033759944") format("woff"), url("//at.alicdn.com/t/font_1031158_u69w8yhxdu.ttf?t=1630033759944") format("truetype"); }
</style></defs><path d="M512 366.208C430.592 366.208 366.208 430.592 366.208 512c0 81.408 64.384 145.792 145.792 145.792 81.408 0 145.792-64.384 145.792-145.792 0-81.408-64.384-145.792-145.792-145.792z m0 240c-47.232 0-89.984-42.624-89.984-94.208 0-51.456 38.4-94.208 89.984-94.208s89.984 42.752 89.984 94.208c0 51.456-38.4 94.208-89.984 94.208z" fill="#5CD6B8" p-id="7986"></path><path d="M512 0C229.23264 0 0 229.23264 0 512s229.23264 512 512 512 512-229.23264 512-512S794.76736 0 512 0z m0 691.968c-171.392 0-299.904-119.936-299.904-179.968 0-60.032 128.512-179.968 299.904-179.968 175.744 0 299.904 119.936 299.904 179.968 0 55.808-124.16 179.968-299.904 179.968z" fill="#5CD6B8" p-id="7987"></path></svg>