<?xml version="1.0" standalone="no"?><!DOCTYPE svg PUBLIC "-//W3C//DTD SVG 1.1//EN" "http://www.w3.org/Graphics/SVG/1.1/DTD/svg11.dtd"><svg t="1650436961026" class="icon" viewBox="0 0 1024 1024" version="1.1" xmlns="http://www.w3.org/2000/svg" p-id="9080" xmlns:xlink="http://www.w3.org/1999/xlink" width="200" height="200"><defs><style type="text/css">@font-face { font-family: feedback-iconfont; src: url("//at.alicdn.com/t/font_1031158_u69w8yhxdu.woff2?t=1630033759944") format("woff2"), url("//at.alicdn.com/t/font_1031158_u69w8yhxdu.woff?t=1630033759944") format("woff"), url("//at.alicdn.com/t/font_1031158_u69w8yhxdu.ttf?t=1630033759944") format("truetype"); }
</style></defs><path d="M764.437 1013.852v-576.34c0-128.269-112.49-232.251-251.254-232.251S261.929 309.243 261.929 437.512v576.34l163.813-235.849V540.16c0-78.165 27.671-127.123 87.441-126.303 48.806 0.67 79.693 48.138 79.693 126.303v237.843l171.561 235.849z" fill="#656B8C" p-id="9081"></path><path d="M563.821 784.154H450.923l-163.537 229.698h441.632z" fill="#656B8C" p-id="9082"></path><path d="M137.744 140.643C229.599 69.284 369.59 16.482 513.183 16.482c278.556 0 504.37 167.323 504.37 373.727v623.643H820.538V386.539c0-125.779-137.607-227.743-307.355-227.743S205.828 260.76 205.828 386.539v627.313H8.813V390.209c0-71.632 34.944-147.599 82.104-204.456m93.069 290.218H90.727v350.238h93.259V475.971z m749.651 0h-93.259v350.238h93.259V475.971z" fill="#656B8C" p-id="9083"></path></svg>